<svg width="32" height="32" viewBox="0 0 32 32" fill="none" xmlns="http://www.w3.org/2000/svg">
<path fill-rule="evenodd" clip-rule="evenodd" d="M24.3847 22.2635C24.7753 22.654 24.7753 23.2871 24.3847 23.6777L23.6776 24.3848C23.2871 24.7753 22.6539 24.7753 22.2634 24.3848L15.5459 17.6673L8.8284 24.3848C8.43787 24.7753 7.8047 24.7753 7.41418 24.3848L6.70707 23.6777C6.31655 23.2871 6.31655 22.654 6.70707 22.2635L13.4246 15.5459L6.70708 8.82843C6.31656 8.43791 6.31656 7.80473 6.70708 7.41421L7.41418 6.70711C7.80471 6.31658 8.43788 6.31658 8.8284 6.70711L15.5459 13.4246L22.2634 6.70711C22.6539 6.31659 23.2871 6.31659 23.6776 6.70711L24.3847 7.41422C24.7753 7.80474 24.7753 8.43791 24.3847 8.82843L17.6672 15.5459L24.3847 22.2635Z" fill="#C4C4C4"/>
</svg>
